# xmcd
#
# Track frame offsets: 
#        150
#        16095
#        35129
#        49424
#        72581
#        97821
#        122119
#        146779
#        177128
#
# Disc length: 2547 seconds
#
# Revision: 1
# Processed by: cddbd v1.5.2PL0 Copyright (c) Steve Scherf et al.
# Submitted via: ExactAudioCopyFreeDBPlugin 1.0
#
DISCID=7f09f109
DTITLE=Carey Harris And Michael Orr - Spread Love
DYEAR=1976
DGENRE=Funk
TTITLE0=Ecstasy, Fantasy and Dreamland
TTITLE1=Let Me Be With You Awhile
TTITLE2=Here I Go (Through These Changes Again)
TTITLE3=Feelings
TTITLE4=A Piece Of Mine
TTITLE5=Spread Love
TTITLE6=Keep My Fire Burning
TTITLE7=You Opened My Eyes To The World
TTITLE8=Afterwhile
EXTD=
EXTT0=
EXTT1=
EXTT2=
EXTT3=
EXTT4=
EXTT5=
EXTT6=
EXTT7=
EXTT8=
PLAYORDER=
